<svg xmlns="http://www.w3.org/2000/svg" width="300.999" height="175.028" viewBox="0 0 300.999 175.028">
  <g id="layer1" transform="translate(-144.184 -491.856)">
    <g id="g2346" transform="translate(144.184 491.856)">
      <path id="Контур_5528" data-name="Контур 5528" d="M275.294,659.6H144.184V528.492h131.11ZM147.864,655.92H271.613V532.172H147.864Z" transform="translate(-144.184 -484.573)"/>
      <g id="g2257" transform="translate(0 0)">
        <g id="Сгруппировать_203" data-name="Сгруппировать 203">
          <path id="path830" d="M147.518,495.531V535.5h-3.1V492.089h4.4l17.3,23.254,17.3-23.254h4.4V535.5h-3.1V495.562l-18.6,25.021Z" transform="translate(-144.137 -491.81)"/>
          <path id="Контур_5529" data-name="Контур 5529" d="M188.145,535.823h-3.661V496.454L166.165,521.1l-18.321-24.675v39.4h-3.66V491.856h4.824l17.157,23.063,17.157-23.063h4.823Zm-3.1-.56h2.539V492.416H183.6l-17.439,23.442-17.44-23.442h-3.981v42.847h2.54V494.729l18.881,25.429,18.88-25.4Z" transform="translate(-144.184 -491.856)"/>
        </g>
        <g id="Сгруппировать_204" data-name="Сгруппировать 204" transform="translate(46.5)">
          <path id="path832" d="M186.307,535.5h-3.1V492.089h3.1Z" transform="translate(-182.926 -491.81)"/>
          <path id="Контур_5530" data-name="Контур 5530" d="M186.634,535.823h-3.661V491.856h3.661Zm-3.1-.56h2.539V492.416h-2.539Z" transform="translate(-182.973 -491.856)"/>
        </g>
        <g id="Сгруппировать_205" data-name="Сгруппировать 205" transform="translate(52.7)">
          <path id="path834" d="M191.479,495.562V535.5h-3.1V492.089h4.4l29.7,39.935V492.089h3.1V535.5h-4.4Z" transform="translate(-188.098 -491.81)"/>
          <path id="Контур_5531" data-name="Контур 5531" d="M225.907,535.823h-4.824L221,535.71l-29.193-39.255v39.368h-3.661V491.856h4.824l.084.113,29.193,39.255V491.856h3.661Zm-4.542-.56h3.981V492.416h-2.539v40.5l-30.119-40.5h-3.981v42.847h2.539v-40.5Z" transform="translate(-188.145 -491.856)"/>
        </g>
        <g id="text817-7-5-5" transform="translate(93.348)">
          <g id="Сгруппировать_206" data-name="Сгруппировать 206">
            <path id="path837" d="M243.987,535.5a21.7,21.7,0,0,1,0-43.407h15.5V535.5Zm0-40.305a18.6,18.6,0,0,0,0,37.205h12.4V495.19Z" transform="translate(-222.006 -491.81)"/>
            <path id="Контур_5532" data-name="Контур 5532" d="M259.815,535.823H244.034a21.983,21.983,0,0,1,0-43.967h15.781Zm-15.781-43.407a21.423,21.423,0,0,0,0,42.847h15.22V492.416Zm12.681,40.307H244.034a18.883,18.883,0,1,1,0-37.765h12.681Zm-12.681-37.205a18.323,18.323,0,0,0,0,36.646h12.12V495.517Z" transform="translate(-222.053 -491.856)"/>
          </g>
        </g>
      </g>
    </g>
    <path id="Контур_5533" data-name="Контур 5533" d="M417.231,666.883H285.4V663.2h128.15V495.537H284.8v-3.681H417.231Z" transform="translate(27.952 0)"/>
    <g id="g2324" transform="translate(275.21 491.856)">
      <g id="Сгруппировать_207" data-name="Сгруппировать 207" transform="translate(0 0)">
        <path id="path840" d="M291.821,522.02H289.1V494.81H274.13v27.21h-2.721V494.81H253.717v-2.721h38.1Z" transform="translate(-253.437 -491.81)"/>
        <path id="Контур_5534" data-name="Контур 5534" d="M292.148,522.346h-3.282v-27.21H274.457v27.21h-3.282v-27.21H253.483v-3.28h38.665Zm-2.722-.559h2.161V492.416H254.044v2.16h17.69v27.211H273.9V494.576h15.53Z" transform="translate(-253.483 -491.856)"/>
      </g>
      <g id="Сгруппировать_208" data-name="Сгруппировать 208" transform="translate(0 33.195)">
        <path id="path842" d="M291.821,519.78v22.448a10.206,10.206,0,0,1-20.413,0v-2.857l-17.692,13.141v-3.4l17.692-13.142V522.5H253.717V519.78ZM289.1,522.5H274.13v19.727a7.485,7.485,0,0,0,14.969,0Z" transform="translate(-253.437 -519.501)"/>
        <path id="Контур_5535" data-name="Контур 5535" d="M253.483,553.116v-4.1l.113-.084,17.579-13.058V522.828H253.483v-3.281h38.665v22.728a10.487,10.487,0,0,1-20.974,0v-2.3Zm18.251-14.256v3.414a9.927,9.927,0,0,0,19.853,0V520.107H254.044v2.161h17.69v13.889l-.113.084L254.044,549.3V552Zm9.927,11.176a7.758,7.758,0,0,1-7.766-7.762V522.268h15.53v20.007a7.8,7.8,0,0,1-7.764,7.762Zm-7.2-27.209v19.447a7.2,7.2,0,0,0,14.409,0V522.828Z" transform="translate(-253.483 -519.547)"/>
      </g>
      <g id="Сгруппировать_209" data-name="Сгруппировать 209" transform="translate(0 66.683)">
        <path id="path844" d="M288.582,565.549l-21.257-9.006v17.985ZM264.6,555.372l-10.886-4.6v-2.939l38.1,16.136V567.1l-38.1,16.136V580.3l10.886-4.6Z" transform="translate(-253.437 -547.412)"/>
        <path id="Контур_5536" data-name="Контур 5536" d="M253.483,583.726v-3.547l10.886-4.6V555.628l-10.886-4.6v-3.547l.39.164,38.276,16.207v3.5l-.171.072Zm.561-3.174v2.329l37.543-15.9v-2.756l-37.543-15.9v2.329l10.886,4.6v20.7Zm13.048-5.532V556.188l22.257,9.431Zm.561-17.983v17.138l20.257-8.556Z" transform="translate(-253.483 -547.482)"/>
      </g>
      <g id="Сгруппировать_210" data-name="Сгруппировать 210" transform="translate(0 103.722)">
        <path id="path846" d="M288.8,581.333H253.717v-2.721h38.1v3.864l-20.413,15.184,20.413,15.183v3.864h-38.1v-2.721h35.056l-21.964-16.325Z" transform="translate(-253.437 -578.333)"/>
        <path id="Контур_5537" data-name="Контур 5537" d="M292.148,617.032H253.483v-3.28h34.489L266.386,597.7,288,581.66H253.483v-3.281h38.665v4.283l-.113.085L271.925,597.7l20.223,15.042Zm-38.1-.559h37.543v-3.444l-20.6-15.324,20.6-15.323v-3.443H254.044V581.1h35.65l-22.369,16.6,22.342,16.607H254.044Z" transform="translate(-253.483 -578.379)"/>
      </g>
      <g id="Сгруппировать_211" data-name="Сгруппировать 211" transform="translate(0 144.536)">
        <path id="path848" d="M256.438,615.379v27.21h-2.721v-29.93h38.1v29.93H289.1v-27.21H274.13v27.21h-2.721v-27.21Z" transform="translate(-253.437 -612.378)"/>
        <path id="Контур_5538" data-name="Контур 5538" d="M292.148,642.915h-3.282V615.7H274.457v27.21h-3.282V615.7H256.765v27.21h-3.282v-30.49h38.665Zm-2.722-.56h2.161v-29.37H254.044v29.37h2.16V615.146h15.53v27.209H273.9V615.146h15.53Z" transform="translate(-253.483 -612.425)"/>
      </g>
    </g>
  </g>
</svg>
